Frank (Val Kilmer) loses his memory after being shot in small desert town in Texas. As he tries to retrace his steps and figure out his true identity, Frank believes he may be part of a plot to assassinate the president.

General
Format : Matroska
File size : 7.65 GiB
Duration : 1 h 39 min
Overall bit rate : 11.0 Mb/s
Format : AVC
Format profile : High@L4.0
Duration : 1 h 39 min
Bit rate : 9506 kb/s
Width : 1920 pixels
Height : 1040 pixels
Display aspect ratio : 1.85:1
Frame rate mode : Constant
Frame rate : 24.000 FPS
Bit depth : 8 bits
Scan type : Progressive
Stream size : 6.45 GiB (84%)
Writing library : x264 core 124

Format : DTS
Duration : 1 h 39 min
Bit rate mode : Constant
Bit rate : 1510 kb/s
Channel(s) : 6 channels
Sampling rate : 48.0 kHz
Bit depth : 24 bits
Stream size : 1.05 GiB (14%)
Language : English

Enjoy and seed!
Help me sharing this by uploading at least as much as you download (ratio of 1)!